# xmcd
#
# Track frame offsets:
#	150
#	37850
#	54500
#	71020
#	90585
#	126060
#	181635
#	205165
#
# Disc length: 2938 seconds
#
# Revision: 2
# Processed by: cddbd v1.5.1PL2 Copyright (c) Steve Scherf et al.
# Submitted via: EasyCDDAExtractor 8.0.2.1
#
DISCID=600b7808
DTITLE=Black Sabbath - Capitol Theatre Flint 22-10-92 Disc 2
DYEAR=1992
DGENRE=Hard Rock
TTITLE0=Black Sabbath
TTITLE1=Master Of Insanity
TTITLE2=After All (The Dead)
TTITLE3=Drum Solo
TTITLE4=Iron Man
TTITLE5=Heaven and Hell
TTITLE6=Neon Knights
TTITLE7=Paranoid
EXTD=
EXTT0=
EXTT1=
EXTT2=
EXTT3=
EXTT4=
EXTT5=
EXTT6=
EXTT7=
PLAYORDER=
